<?xml version="1.0" standalone="no"?>
<!DOCTYPE svg PUBLIC "-//W3C//DTD SVG 1.0//EN" "http://www.w3.org/TR/2001/REC-SVG-20010904/DTD/svg10.dtd">
<svg xmlns="http://www.w3.org/2000/svg" xmlns:xlink="http://www.w3.org/1999/xlink" id="body_1" width="24" height="24">

<g transform="matrix(1 0 0 1 0 0)">
    <path d="M13 3L16.293 6.293L9.292999 13.293L10.706999 14.707001L17.706999 7.7070007L21 11L21 3L13 3z" stroke="none" fill="#000000" fill-rule="nonzero" />
    <path d="M19 19L5 19L5 5L12 5L10 3L5 3C 3.8969998 3 3 3.897 3 5L3 5L3 19C 3 20.103 3.897 21 5 21L5 21L19 21C 20.103 21 21 20.103 21 19L21 19L21 14L19 12L19 19z" stroke="none" fill="#000000" fill-rule="nonzero" />
</g>
</svg>